<svg width="169" height="50" viewBox="0 0 169 50" fill="none" xmlns="http://www.w3.org/2000/svg">
<path d="M86.4805 37.8289C86.4805 38.227 86.3913 38.7566 86.4805 39.1447C86.6125 39.5329 87.1109 39.875 87.7183 40.2138C88.3289 40.5493 87.7612 41.9802 87.8008 42.1052C87.9988 42.1743 88.319 42.5756 88.4609 42.7631C88.6458 43.0033 88.966 43.3223 88.791 43.75C88.4081 44.6875 84.9786 43.9506 83.8398 44.0789C82.7011 44.2072 79.8327 44.1941 78.5586 44.0789C77.9909 43.5263 78.1988 42.3355 79.2188 42.4342C78.2417 41.1809 79.4102 39.7467 80.5391 39.1447C81.1662 38 81.6151 35.5427 81.1992 34.2105M34.3281 7.89472C43.1115 9.14472 41.57 24.7993 32.275 23.4276C22.98 22.0559 24.7526 6.53288 34.3281 7.89472ZM50.1719 7.89472C59.1137 9.16774 57.4072 24.8092 48.1188 23.4276C38.8304 22.046 40.692 6.54603 50.1719 7.89472ZM84.1699 15.1316C85.0083 16.2171 86.0481 17.2895 87.1406 18.0921C87.7645 17.3026 87.6853 16.3125 88.1309 15.4605C92.5902 15.6612 86.4442 20.4802 90.4414 21.7105C90.5305 22.6151 89.3554 22.921 89.1211 23.6842C88.484 23.2697 87.8305 22.6973 87.4707 22.0395C85.1271 23.6118 81.4897 24.5362 79.1428 22.4441C76.796 20.352 77.7268 16.2237 80.5391 15.1316C78.2714 12.2434 79.2386 7.76314 83.5098 7.89472C87.781 8.0263 87.7579 13.9145 84.1699 15.1316ZM109.256 11.1842C108.305 11.1085 108.005 12.5362 106.945 12.171C105.767 9.63485 101.011 9.88814 99.9312 12.7467C98.8485 15.6052 99.0201 18.7138 101.74 20.648C104.46 22.5822 107.959 17.5822 109.256 21.0526C104.285 26.6743 96.6502 22.1118 96.7129 15.4605C96.7756 8.80919 105.655 4.79932 109.256 11.1842ZM149.195 9.21051C149.403 10.1052 148.512 10.6612 148.535 11.5131C147.39 10.023 141.118 9.40459 141.722 12.4013C142.323 15.3947 147.073 14.148 148.783 16.2006C150.489 18.2566 150.123 22.3059 147.139 23.2796C144.155 24.2533 141.125 23.2895 138.633 21.7105C138.953 20.9309 139.541 20.2664 139.623 19.4079C140.94 20.2598 145.961 23.2434 147.132 20.3125C148.301 17.3783 143.257 16.921 141.198 15.8651C139.141 14.8092 138.28 10.398 141.019 8.95722C143.759 7.51643 146.489 7.75656 149.195 9.21051ZM162.068 9.21051C162.27 10.171 161.279 10.6677 161.078 11.5131C159.537 8.97038 153.041 10.477 154.784 13.1809C156.523 15.8881 160.774 14.0592 162.316 17.1875C163.857 20.3125 161.154 23.2401 158.414 23.6612C155.675 24.0789 150.496 22.9046 152.166 19.7368C153.816 20.148 158.609 23.2368 159.84 20.148C161.068 17.0592 155.787 17.0658 153.79 15.8158C151.796 14.5625 150.846 10.5625 153.569 8.9638C156.292 7.36511 159.385 7.89801 162.068 9.21051ZM7.26172 8.22367C7.97799 12.0197 9.53926 15.5921 10.2324 19.4079C11.5131 17.5756 11.4471 14.9309 12.2096 12.8256C12.9721 10.7204 12.982 7.26314 16.1738 8.22367C16.7977 12.0427 18.2962 15.6316 19.1445 19.4079C20.3493 17.5329 20.3427 14.9276 21.1217 12.8256C21.9007 10.7237 21.8809 7.26314 25.0859 8.22367C23.8845 13.3223 21.8347 18.2006 20.7949 23.3552C19.8047 23.3552 18.8145 23.3552 17.8242 23.3552C16.999 19.8092 15.8999 16.3223 14.8535 12.8289C13.6388 16.1414 12.5991 19.7927 11.8828 23.3552C10.8926 23.3552 9.90234 23.3552 8.91211 23.3552C7.56209 18.2664 6.01072 13.2171 4.29102 8.22367C5.28125 8.22367 6.27148 8.22367 7.26172 8.22367ZM58.7539 23.3552C58.7539 18.3125 58.7539 13.2664 58.7539 8.22367C64.6821 7.20393 71.6567 8.81248 71.6237 15.7927C71.594 22.7697 64.6986 24.3388 58.7539 23.3552ZM114.207 8.22367C114.207 10.3059 114.207 12.3914 114.207 14.4737C116.518 14.4737 118.828 14.4737 121.139 14.4737C121.139 12.3914 121.139 10.3059 121.139 8.22367C125.123 7.28288 123.571 11.796 123.779 14.4737C123.987 17.1513 123.624 20.6085 123.779 23.3552C119.531 24.4934 121.621 19.2204 121.139 16.7763C118.828 16.7763 116.518 16.7763 114.207 16.7763C114.207 18.9704 114.207 21.1612 114.207 23.3552C110.223 24.296 111.774 19.7829 111.566 17.1052C111.358 14.4276 111.722 10.9704 111.566 8.22367C112.448 8.22367 113.326 8.22367 114.207 8.22367ZM136.982 8.22367C137.758 12.3914 131.876 9.81906 129.391 10.5263C129.391 11.8421 129.391 13.1579 129.391 14.4737C131.592 14.4737 133.791 14.4737 135.992 14.4737C136.907 18.4112 131.668 16.2138 129.391 16.7763C129.391 18.2006 129.391 19.6283 129.391 21.0526C132.031 21.0526 134.672 21.0526 137.312 21.0526C138.184 23.9934 135.355 23.3618 133.352 23.3552C131.348 23.3487 129.103 23.3585 127.08 23.3552C127.08 18.3125 127.08 13.2664 127.08 8.22367C130.381 8.22367 133.682 8.22367 136.982 8.22367ZM56.4434 33.8816C56.4434 35.4177 56.4434 36.9506 56.4434 38.4868C52.3735 37.6184 50.1554 38.5066 45.5508 38.8158C40.9462 39.125 40.8901 33.2368 45.5508 33.5526C50.2115 33.8684 52.3504 34.6151 56.4434 33.8816ZM74.9277 33.8816C74.9277 35.4177 74.9277 36.9506 74.9277 38.4868C71.7227 38.8224 68.5638 38.0362 65.3555 38.4868C62.1471 38.9375 60.1402 37.1645 57.1035 37.171C56.7734 34.9539 59.0906 34.9737 60.8169 33.9638C62.5399 32.9506 65.6096 34.3256 67.666 33.8816C69.7224 33.4375 72.7822 34.2171 74.9277 33.8816ZM4.29102 37.171C4.19529 36.9835 4.19529 35.7138 4.29102 35.5263C4.90826 34.3322 8.38068 35.5033 9.90234 35.1973C11.424 34.8914 14.3782 35.3421 16.1738 35.1973C17.9695 35.0526 20.181 35.2598 22.1152 35.1973C24.0495 35.1348 26.3963 35.227 28.3867 35.1973C30.3771 35.1677 32.3047 35.2138 34.3281 35.1973C36.3515 35.1809 38.5597 35.2072 40.5996 35.1973C40.0715 39.3421 33.8627 37.1381 30.0371 37.5C26.2115 37.8618 21.2009 37.3848 17.1641 37.5C13.1272 37.6151 8.10672 37.6875 4.29102 37.171ZM162.729 37.171C139.072 37.171 115.418 37.171 91.7617 37.171C91.9499 33.6414 97.1585 35.5131 100.344 35.1973C103.529 34.8816 107.513 35.3256 110.906 35.1973C114.299 35.0691 118.333 35.2335 121.799 35.1973C125.265 35.1612 128.896 35.1546 132.361 35.1973C135.827 35.2401 139.857 35.0592 143.254 35.1973C146.65 35.3355 150.621 34.8585 153.816 35.1973C157.012 35.5362 162.27 33.6052 162.729 37.171Z" stroke="#F8F8F8" stroke-opacity="0.5" stroke-width="0.3"/>
<path d="M34.3281 7.89472C24.7526 6.53288 22.98 22.0559 32.275 23.4276C41.57 24.7993 43.1115 9.14472 34.3281 7.89472ZM34.6582 10.5263C40.1375 12.1842 37.5266 22.8848 31.7964 20.9441C26.0663 19.0033 28.6013 8.69406 34.6582 10.5263Z" stroke="#F3F3F3" stroke-width="0.3"/>
<path d="M50.1719 7.89472C40.692 6.54603 38.8304 22.046 48.1188 23.4276C57.4072 24.8092 59.1137 9.16774 50.1719 7.89472ZM50.502 10.5263C56.0803 11.9046 53.4231 23.2006 47.6402 20.9441C41.8572 18.6875 44.6101 9.07235 50.502 10.5263Z" stroke="#F3F3F3" stroke-width="0.3"/>
<path d="M84.1699 15.1316C87.7579 13.9145 87.781 8.02632 83.5098 7.89474C79.2385 7.76316 78.2714 12.2434 80.5391 15.1316C77.7268 16.2237 76.796 20.352 79.1428 22.4441C81.4897 24.5362 85.1271 23.6118 87.4707 22.0395C87.8305 22.6974 88.484 23.2697 89.1211 23.6842C89.3554 22.9211 90.5305 22.6151 90.4414 21.7105C86.4442 20.4803 92.5902 15.6612 88.1309 15.4605C87.6852 16.3125 87.7645 17.3026 87.1406 18.0921C86.0481 17.2895 85.0083 16.2171 84.1699 15.1316ZM84.1699 9.86842C85.7378 10.5855 84.1666 14.1941 82.4436 13.227C80.7206 12.2632 82.0046 8.87829 84.1699 9.86842ZM82.1894 16.4474C83.0311 18.0428 85.3912 18.8322 85.4902 20.7237C82.1927 23.4079 77.773 18.5428 82.1894 16.4474Z" stroke="#AC9363" stroke-opacity="0.96" stroke-width="0.3"/>
<path d="M109.256 11.1842C105.655 4.79934 96.7756 8.80921 96.7129 15.4605C96.6502 22.1118 104.285 26.6743 109.256 21.0526C107.959 17.5822 104.46 22.5822 101.74 20.648C99.0201 18.7138 98.8485 15.6053 99.9311 12.7467C101.011 9.88816 105.767 9.63487 106.945 12.1711C108.005 12.5362 108.305 11.1086 109.256 11.1842Z" stroke="#F3F3F3" stroke-width="0.3"/>
<path d="M149.195 9.2105C146.489 7.75655 143.759 7.51642 141.019 8.95721C138.28 10.398 139.141 14.8092 141.198 15.8651C143.257 16.921 148.301 17.3783 147.132 20.3125C145.961 23.2434 140.94 20.2598 139.623 19.4079C139.541 20.2664 138.953 20.9309 138.633 21.7105C141.125 23.2894 144.155 24.2533 147.139 23.2796C150.123 22.3059 150.489 18.2566 148.783 16.2006C147.073 14.148 142.323 15.3947 141.722 12.4013C141.118 9.40458 147.39 10.023 148.535 11.5131C148.512 10.6612 149.403 10.1052 149.195 9.2105Z" stroke="#F3F3F3" stroke-width="0.3"/>
<path d="M162.068 9.21055C159.385 7.89805 156.292 7.36516 153.569 8.96384C150.846 10.5625 151.796 14.5625 153.79 15.8158C155.787 17.0658 161.068 17.0592 159.84 20.1481C158.609 23.2369 153.816 20.1481 152.166 19.7369C150.496 22.9046 155.675 24.079 158.414 23.6612C161.154 23.2402 163.857 20.3125 162.316 17.1875C160.774 14.0592 156.523 15.8882 154.784 13.1809C153.041 10.477 159.537 8.97042 161.078 11.5132C161.279 10.6678 162.27 10.1711 162.068 9.21055Z" stroke="#F3F3F3" stroke-width="0.3"/>
<path d="M7.26172 8.22368C6.27148 8.22368 5.28125 8.22368 4.29102 8.22368C6.01072 13.2171 7.56209 18.2664 8.91211 23.3553C9.90234 23.3553 10.8926 23.3553 11.8828 23.3553C12.5991 19.7928 13.6388 16.1414 14.8535 12.8289C15.8999 16.3224 16.999 19.8092 17.8242 23.3553C18.8145 23.3553 19.8047 23.3553 20.7949 23.3553C21.8347 18.2007 23.8845 13.3224 25.0859 8.22368C21.8809 7.26316 21.9007 10.7237 21.1217 12.8257C20.3427 14.9276 20.3493 17.5329 19.1445 19.4079C18.2962 15.6316 16.7977 12.0428 16.1738 8.22368C12.982 7.26316 12.9721 10.7204 12.2096 12.8257C11.4471 14.9309 11.5131 17.5757 10.2324 19.4079C9.53926 15.5921 7.97799 12.0197 7.26172 8.22368Z" stroke="#F3F3F3" stroke-width="0.3"/>
<path d="M58.7539 23.3553C64.6986 24.3388 71.5939 22.7698 71.6237 15.7928C71.6567 8.81252 64.6821 7.20397 58.7539 8.2237C58.7539 13.2665 58.7539 18.3125 58.7539 23.3553ZM61.3945 21.0526C61.3945 17.5428 61.3945 14.0362 61.3945 10.5263C65.2696 9.64147 68.983 11.7204 68.983 15.7928C68.983 19.8651 65.2696 21.9309 61.3945 21.0526Z" stroke="#F3F3F3" stroke-width="0.3"/>
<path d="M114.207 8.22371C113.326 8.22371 112.448 8.22371 111.566 8.22371C111.722 10.9704 111.358 14.4277 111.566 17.1053C111.774 19.7829 110.223 24.2961 114.207 23.3553C114.207 21.1612 114.207 18.9704 114.207 16.7763C116.518 16.7763 118.828 16.7763 121.139 16.7763C121.621 19.2204 119.531 24.4934 123.779 23.3553C123.624 20.6086 123.987 17.1513 123.779 14.4737C123.571 11.7961 125.123 7.28292 121.139 8.22371C121.139 10.3059 121.139 12.3915 121.139 14.4737C118.828 14.4737 116.518 14.4737 114.207 14.4737C114.207 12.3915 114.207 10.3059 114.207 8.22371Z" stroke="#F3F3F3" stroke-width="0.3"/>
<path d="M136.982 8.22369C133.682 8.22369 130.381 8.22369 127.08 8.22369C127.08 13.2665 127.08 18.3125 127.08 23.3553C129.103 23.3586 131.348 23.3487 133.352 23.3553C135.355 23.3619 138.184 23.9934 137.312 21.0526C134.672 21.0526 132.031 21.0526 129.391 21.0526C129.391 19.6283 129.391 18.2007 129.391 16.7763C131.668 16.2138 136.907 18.4112 135.992 14.4737C133.791 14.4737 131.592 14.4737 129.391 14.4737C129.391 13.1579 129.391 11.8421 129.391 10.5263C131.876 9.81909 137.758 12.3915 136.982 8.22369Z" stroke="#F3F3F3" stroke-width="0.3"/>
<path d="M84.1699 9.8684C82.0046 8.87827 80.7206 12.2631 82.4436 13.227C84.1666 14.1941 85.7378 10.5855 84.1699 9.8684Z" stroke="#F7F4E9" stroke-opacity="0.51" stroke-width="0.3"/>
<path d="M34.6582 10.5263C28.6013 8.69406 26.0663 19.0033 31.7964 20.9441C37.5266 22.8848 40.1375 12.1842 34.6582 10.5263Z" stroke="#F6F6F6" stroke-opacity="0.51" stroke-width="0.3"/>
<path d="M50.502 10.5263C44.6101 9.07237 41.8572 18.6875 47.6402 20.9441C53.4231 23.2007 56.0803 11.9046 50.502 10.5263Z" stroke="#F6F7F6" stroke-opacity="0.5" stroke-width="0.3"/>
<path d="M61.3945 21.0526C65.2696 21.9309 68.983 19.8651 68.983 15.7928C68.983 11.7204 65.2696 9.64145 61.3945 10.5263C61.3945 14.0362 61.3945 17.5428 61.3945 21.0526Z" stroke="#F6F7F7" stroke-opacity="0.5" stroke-width="0.3"/>
<path d="M82.1895 16.4474C77.773 18.5428 82.1928 23.4079 85.4902 20.7237C85.3912 18.8323 83.0311 18.0428 82.1895 16.4474Z" stroke="#F7F6ED" stroke-opacity="0.51" stroke-width="0.3"/>
<path d="M79.8789 30.2631C79.9086 30.5 80.5094 31.1184 80.209 31.5789C82.5195 31.5789 84.8301 31.5789 87.1406 31.5789C87.3519 30.4177 87.1439 27.8585 85.8203 29.6052C85.2064 30.5131 84.0313 29.5658 84.5 28.6184C82.5096 27.8289 83.2919 30.4704 81.5293 29.9342C81.2223 29.1118 81.0177 28.2631 79.8789 28.6184C79.8855 29.1677 79.869 29.7138 79.8789 30.2631Z" stroke="#AA9261" stroke-opacity="0.99" stroke-width="0.3"/>
<path d="M80.5391 32.5658C80.6018 32.7007 80.5028 33.0658 80.5391 33.2237C81.0738 33.9145 86.7379 33.9178 86.7841 32.9211C86.8271 31.9276 81.1101 31.8257 80.5391 32.5658ZM86.4805 32.8947C84.9654 33.4276 82.3611 33.454 80.8691 32.8947C82.3842 32.3619 84.9885 32.3355 86.4805 32.8947Z" stroke="#B1A078" stroke-opacity="0.84" stroke-width="0.3"/>
<path d="M86.4805 32.8947C84.9885 32.3355 82.3842 32.3618 80.8691 32.8947C82.3611 33.4539 84.9654 33.4276 86.4805 32.8947Z" stroke="#A68F5A" stroke-width="0.3"/>
<path d="M56.4434 33.8816C52.3504 34.6151 50.2115 33.8684 45.5508 33.5526C40.8901 33.2368 40.9462 39.125 45.5508 38.8158C50.1554 38.5066 52.3735 37.6184 56.4434 38.4868C56.4434 36.9506 56.4434 35.4177 56.4434 33.8816Z" stroke="#F3F3F3" stroke-width="0.3"/>
<path d="M74.9277 33.8816C72.7822 34.2171 69.7224 33.4375 67.666 33.8816C65.6096 34.3257 62.5399 32.9507 60.8169 33.9638C59.0906 34.9737 56.7734 34.954 57.1035 37.1711C60.1402 37.1645 62.1471 38.9375 65.3555 38.4869C68.5638 38.0362 71.7227 38.8224 74.9277 38.4869C74.9277 36.9507 74.9277 35.4178 74.9277 33.8816ZM73.9375 38.1579C72.9539 37.1151 72.9935 35.25 73.9375 34.2105C74.4557 35.1776 74.5019 37.2138 73.9375 38.1579Z" stroke="#F3F3F3" stroke-width="0.3"/>
<path d="M81.1992 34.2105C81.6151 35.5428 81.1662 38 80.5391 39.1447C79.9944 40.1415 78.7137 40.7138 79.2188 42.1053C82.0805 42.1053 84.939 42.1053 87.8008 42.1053C88.56 40.704 86.7148 40.1513 86.4805 39.1447C86.3914 38.7566 86.4805 38.227 86.4805 37.829C85.7411 36.7961 85.8038 35.2336 85.8203 33.8816C84.632 33.2369 82.1432 34.5954 81.1992 34.2105Z" stroke="#AD915D" stroke-opacity="0.98" stroke-width="0.3"/>
<path d="M73.9375 38.1579C74.5019 37.2138 74.4557 35.1776 73.9375 34.2105C72.9935 35.25 72.9539 37.1151 73.9375 38.1579Z" stroke="#DBE0E2" stroke-opacity="0.88" stroke-width="0.3"/>
<path d="M4.29102 35.5263C16.2828 35.5263 28.2778 35.5263 40.2695 35.5263C39.9196 38.4967 35.5131 36.898 32.6777 37.1711C29.8424 37.4441 26.1026 37.0395 23.1055 37.1711C20.1084 37.3026 16.9363 37.1053 13.8633 37.1711C10.7903 37.2368 7.39375 37.1217 4.29102 37.1711C8.10672 37.6875 13.1272 37.6151 17.1641 37.5C21.2009 37.3849 26.2115 37.8618 30.0371 37.5C33.8627 37.1382 40.0715 39.3421 40.5996 35.1974C38.5597 35.2072 36.3515 35.1809 34.3281 35.1974C32.3047 35.2138 30.3771 35.1678 28.3867 35.1974C26.3963 35.227 24.0495 35.1349 22.1152 35.1974C20.181 35.2599 17.9695 35.0526 16.1738 35.1974C14.3782 35.3421 11.424 34.8914 9.90234 35.1974C8.38068 35.5033 4.90826 34.3322 4.29102 35.5263Z" stroke="#F3F3F3" stroke-width="0.3"/>
<path d="M162.729 37.1711C162.27 33.6053 157.012 35.5362 153.816 35.1974C150.621 34.8586 146.65 35.3355 143.254 35.1974C139.857 35.0592 135.827 35.2401 132.361 35.1974C128.896 35.1546 125.265 35.1612 121.799 35.1974C118.333 35.2336 114.299 35.0691 110.906 35.1974C107.513 35.3257 103.529 34.8816 100.344 35.1974C97.1585 35.5132 91.9499 33.6415 91.7617 37.1711C115.418 37.1711 139.072 37.1711 162.729 37.1711Z" stroke="#B49A6A" stroke-opacity="0.95" stroke-width="0.3"/>
<path d="M4.29102 37.171C7.39375 37.1217 10.7903 37.2368 13.8633 37.171C16.9363 37.1053 20.1084 37.3026 23.1055 37.171C26.1026 37.0395 29.8424 37.4441 32.6777 37.171C35.5131 36.898 39.9196 38.4967 40.2695 35.5263C28.2778 35.5263 16.2828 35.5263 4.29102 35.5263C4.19529 35.7138 4.19529 36.9835 4.29102 37.171Z" stroke="#F3F3F3" stroke-width="0.3"/>
<path d="M78.5586 44.0789C78.5454 44.0789 78.5586 43.75 78.5586 43.75C78.519 43.4243 78.5883 43.0888 78.5586 42.7631C81.8594 42.7631 85.1602 42.7631 88.4609 42.7631C88.319 42.5756 87.9988 42.1743 87.8008 42.1052C84.939 42.1052 82.0805 42.1052 79.2188 42.1052C78.7137 40.7138 79.9944 40.1414 80.5391 39.1447C79.4102 39.7467 78.2417 41.1809 79.2188 42.4342C78.1988 42.3355 77.9909 43.5263 78.5586 44.0789Z" stroke="#DED0AE" stroke-opacity="0.63" stroke-width="0.3"/>
<path d="M87.8008 42.1052C87.7612 41.9802 88.3289 40.5493 87.7183 40.2138C87.1109 39.875 86.6125 39.5329 86.4805 39.1447C86.7148 40.1513 88.56 40.7039 87.8008 42.1052Z" stroke="#B4A484" stroke-opacity="0.81" stroke-width="0.3"/>
<path d="M78.5586 43.75C81.9419 43.4441 85.4011 43.9803 88.791 43.75C88.966 43.3224 88.6458 43.0033 88.4609 42.7632C85.1602 42.7632 81.8594 42.7632 78.5586 42.7632C78.5883 43.0888 78.519 43.4244 78.5586 43.75Z" stroke="#A88E5D" stroke-opacity="0.99" stroke-width="0.3"/>
<path d="M78.5586 44.0789C79.8327 44.1941 82.7011 44.2072 83.8398 44.0789C84.9786 43.9506 88.4081 44.6875 88.791 43.75C85.4011 43.9803 81.9419 43.4441 78.5586 43.75C78.5586 43.75 78.5454 44.0789 78.5586 44.0789Z" stroke="#B1A37D" stroke-opacity="0.8" stroke-width="0.3"/>
<path d="M34.3281 7.89472C24.7526 6.53288 22.98 22.0559 32.275 23.4276C41.57 24.7993 43.1115 9.14472 34.3281 7.89472ZM34.6582 10.5263C40.1375 12.1842 37.5266 22.8848 31.7964 20.9441C26.0663 19.0033 28.6013 8.69406 34.6582 10.5263Z" fill="#F3F3F3" stroke="#F3F3F3"/>
<path d="M50.1719 7.89472C40.692 6.54603 38.8304 22.046 48.1188 23.4276C57.4072 24.8092 59.1137 9.16774 50.1719 7.89472ZM50.502 10.5263C56.0803 11.9046 53.4231 23.2006 47.6402 20.9441C41.8572 18.6875 44.6101 9.07235 50.502 10.5263Z" fill="#F3F3F3" stroke="#F3F3F3"/>
<path d="M84.1699 15.1316C87.7579 13.9145 87.781 8.02632 83.5098 7.89474C79.2385 7.76316 78.2714 12.2434 80.5391 15.1316C77.7268 16.2237 76.796 20.352 79.1428 22.4441C81.4897 24.5362 85.1271 23.6118 87.4707 22.0395C87.8305 22.6974 88.484 23.2697 89.1211 23.6842C89.3554 22.9211 90.5305 22.6151 90.4414 21.7105C86.4442 20.4803 92.5902 15.6612 88.1309 15.4605C87.6852 16.3125 87.7645 17.3026 87.1406 18.0921C86.0481 17.2895 85.0083 16.2171 84.1699 15.1316ZM84.1699 9.86842C85.7378 10.5855 84.1666 14.1941 82.4436 13.227C80.7206 12.2632 82.0046 8.87829 84.1699 9.86842ZM82.1894 16.4474C83.0311 18.0428 85.3912 18.8322 85.4902 20.7237C82.1927 23.4079 77.773 18.5428 82.1894 16.4474Z" fill="#AC9363" fill-opacity="0.96"/>
<path d="M109.256 11.1842C105.655 4.79934 96.7756 8.80921 96.7129 15.4605C96.6502 22.1118 104.285 26.6743 109.256 21.0526C107.959 17.5822 104.46 22.5822 101.74 20.648C99.0201 18.7138 98.8485 15.6053 99.9311 12.7467C101.011 9.88816 105.767 9.63487 106.945 12.1711C108.005 12.5362 108.305 11.1086 109.256 11.1842Z" fill="#F3F3F3" stroke="#F3F3F3"/>
<path d="M149.195 9.2105C146.489 7.75655 143.759 7.51642 141.019 8.95721C138.28 10.398 139.141 14.8092 141.198 15.8651C143.257 16.921 148.301 17.3783 147.132 20.3125C145.961 23.2434 140.94 20.2598 139.623 19.4079C139.541 20.2664 138.953 20.9309 138.633 21.7105C141.125 23.2894 144.155 24.2533 147.139 23.2796C150.123 22.3059 150.489 18.2566 148.783 16.2006C147.073 14.148 142.323 15.3947 141.722 12.4013C141.118 9.40458 147.39 10.023 148.535 11.5131C148.512 10.6612 149.403 10.1052 149.195 9.2105Z" fill="#F3F3F3" stroke="#F3F3F3"/>
<path d="M162.068 9.21055C159.385 7.89805 156.292 7.36516 153.569 8.96384C150.846 10.5625 151.796 14.5625 153.79 15.8158C155.787 17.0658 161.068 17.0592 159.84 20.1481C158.609 23.2369 153.816 20.1481 152.166 19.7369C150.496 22.9046 155.675 24.079 158.414 23.6612C161.154 23.2402 163.857 20.3125 162.316 17.1875C160.774 14.0592 156.523 15.8882 154.784 13.1809C153.041 10.477 159.537 8.97042 161.078 11.5132C161.279 10.6678 162.27 10.1711 162.068 9.21055Z" fill="#F3F3F3" stroke="#F3F3F3"/>
<path d="M7.26172 8.22368C6.27148 8.22368 5.28125 8.22368 4.29102 8.22368C6.01072 13.2171 7.56209 18.2664 8.91211 23.3553C9.90234 23.3553 10.8926 23.3553 11.8828 23.3553C12.5991 19.7928 13.6388 16.1414 14.8535 12.8289C15.8999 16.3224 16.999 19.8092 17.8242 23.3553C18.8145 23.3553 19.8047 23.3553 20.7949 23.3553C21.8347 18.2007 23.8845 13.3224 25.0859 8.22368C21.8809 7.26316 21.9007 10.7237 21.1217 12.8257C20.3427 14.9276 20.3493 17.5329 19.1445 19.4079C18.2962 15.6316 16.7977 12.0428 16.1738 8.22368C12.982 7.26316 12.9721 10.7204 12.2096 12.8257C11.4471 14.9309 11.5131 17.5757 10.2324 19.4079C9.53926 15.5921 7.97799 12.0197 7.26172 8.22368Z" fill="#F3F3F3" stroke="#F3F3F3"/>
<path d="M58.7539 23.3553C64.6986 24.3388 71.5939 22.7698 71.6237 15.7928C71.6567 8.81252 64.6821 7.20397 58.7539 8.2237C58.7539 13.2665 58.7539 18.3125 58.7539 23.3553ZM61.3945 21.0526C61.3945 17.5428 61.3945 14.0362 61.3945 10.5263C65.2696 9.64147 68.983 11.7204 68.983 15.7928C68.983 19.8652 65.2696 21.9309 61.3945 21.0526Z" fill="#F3F3F3" stroke="#F3F3F3"/>
<path d="M114.207 8.22371C113.326 8.22371 112.448 8.22371 111.566 8.22371C111.722 10.9704 111.358 14.4277 111.566 17.1053C111.774 19.7829 110.223 24.2961 114.207 23.3553C114.207 21.1612 114.207 18.9704 114.207 16.7763C116.518 16.7763 118.828 16.7763 121.139 16.7763C121.621 19.2204 119.531 24.4934 123.779 23.3553C123.624 20.6086 123.987 17.1513 123.779 14.4737C123.571 11.7961 125.123 7.28292 121.139 8.22371C121.139 10.3059 121.139 12.3915 121.139 14.4737C118.828 14.4737 116.518 14.4737 114.207 14.4737C114.207 12.3915 114.207 10.3059 114.207 8.22371Z" fill="#F3F3F3" stroke="#F3F3F3"/>
<path d="M136.982 8.22369C133.682 8.22369 130.381 8.22369 127.08 8.22369C127.08 13.2665 127.08 18.3125 127.08 23.3553C129.103 23.3586 131.348 23.3487 133.352 23.3553C135.355 23.3618 138.184 23.9934 137.312 21.0526C134.672 21.0526 132.031 21.0526 129.391 21.0526C129.391 19.6283 129.391 18.2007 129.391 16.7763C131.668 16.2138 136.907 18.4112 135.992 14.4737C133.791 14.4737 131.592 14.4737 129.391 14.4737C129.391 13.1579 129.391 11.8421 129.391 10.5263C131.876 9.81909 137.758 12.3915 136.982 8.22369Z" fill="#F3F3F3" stroke="#F3F3F3"/>
<path d="M79.8789 30.2631C79.9086 30.5 80.5094 31.1184 80.209 31.5789C82.5195 31.5789 84.8301 31.5789 87.1406 31.5789C87.3519 30.4177 87.1439 27.8585 85.8203 29.6052C85.2064 30.5131 84.0313 29.5658 84.5 28.6184C82.5096 27.8289 83.2919 30.4704 81.5293 29.9342C81.2223 29.1118 81.0177 28.2631 79.8789 28.6184C79.8855 29.1677 79.869 29.7138 79.8789 30.2631Z" fill="#AA9261" fill-opacity="0.99"/>
<path d="M80.5391 32.5658C80.6018 32.7007 80.5028 33.0658 80.5391 33.2237C81.0738 33.9145 86.7379 33.9178 86.7841 32.9211C86.8271 31.9276 81.1101 31.8257 80.5391 32.5658ZM86.4805 32.8947C84.9654 33.4276 82.3611 33.454 80.8691 32.8947C82.3842 32.3619 84.9885 32.3355 86.4805 32.8947Z" fill="#B1A078" fill-opacity="0.84"/>
<path d="M86.4805 32.8947C84.9885 32.3355 82.3842 32.3618 80.8691 32.8947C82.3611 33.4539 84.9654 33.4276 86.4805 32.8947Z" fill="#A68F5A"/>
<path d="M56.4434 33.8816C52.3504 34.6151 50.2115 33.8684 45.5508 33.5526C40.8901 33.2368 40.9462 39.125 45.5508 38.8158C50.1554 38.5066 52.3735 37.6184 56.4434 38.4868C56.4434 36.9506 56.4434 35.4177 56.4434 33.8816Z" fill="#F3F3F3" stroke="#F3F3F3"/>
<path d="M74.9277 33.8816C72.7822 34.2171 69.7224 33.4375 67.666 33.8816C65.6096 34.3257 62.5399 32.9507 60.8169 33.9638C59.0906 34.9737 56.7734 34.954 57.1035 37.1711C60.1402 37.1645 62.1471 38.9375 65.3555 38.4869C68.5638 38.0362 71.7227 38.8224 74.9277 38.4869C74.9277 36.9507 74.9277 35.4178 74.9277 33.8816ZM73.9375 38.1579C72.9539 37.1151 72.9935 35.25 73.9375 34.2105C74.4557 35.1776 74.5019 37.2138 73.9375 38.1579Z" fill="#F3F3F3" stroke="#F3F3F3"/>
<path d="M81.1992 34.2105C81.6151 35.5428 81.1662 38 80.5391 39.1447C79.9944 40.1415 78.7137 40.7138 79.2188 42.1053C82.0805 42.1053 84.939 42.1053 87.8008 42.1053C88.56 40.704 86.7148 40.1513 86.4805 39.1447C86.3914 38.7566 86.4805 38.227 86.4805 37.829C85.7411 36.7961 85.8038 35.2336 85.8203 33.8816C84.632 33.2369 82.1432 34.5954 81.1992 34.2105Z" fill="#AD915D" fill-opacity="0.98"/>
<path d="M4.29102 35.5263C16.2828 35.5263 28.2778 35.5263 40.2695 35.5263C39.9196 38.4967 35.5131 36.898 32.6777 37.1711C29.8424 37.4441 26.1026 37.0395 23.1055 37.1711C20.1084 37.3026 16.9363 37.1053 13.8633 37.1711C10.7903 37.2368 7.39375 37.1217 4.29102 37.1711C8.10672 37.6875 13.1272 37.6151 17.1641 37.5C21.2009 37.3849 26.2115 37.8618 30.0371 37.5C33.8627 37.1382 40.0715 39.3421 40.5996 35.1974C38.5597 35.2072 36.3515 35.1809 34.3281 35.1974C32.3047 35.2138 30.3771 35.1678 28.3867 35.1974C26.3963 35.227 24.0495 35.1349 22.1152 35.1974C20.181 35.2599 17.9695 35.0526 16.1738 35.1974C14.3782 35.3421 11.424 34.8914 9.90234 35.1974C8.38068 35.5033 4.90826 34.3322 4.29102 35.5263Z" fill="#F3F3F3" stroke="#F3F3F3"/>
<path d="M162.729 37.1711C162.27 33.6053 157.012 35.5362 153.816 35.1974C150.621 34.8586 146.65 35.3355 143.254 35.1974C139.857 35.0592 135.827 35.2401 132.361 35.1974C128.896 35.1546 125.265 35.1612 121.799 35.1974C118.333 35.2336 114.299 35.0691 110.906 35.1974C107.513 35.3257 103.529 34.8816 100.344 35.1974C97.1585 35.5132 91.9499 33.6415 91.7617 37.1711C115.418 37.1711 139.072 37.1711 162.729 37.1711Z" fill="#B49A6A" fill-opacity="0.95"/>
<path d="M4.29102 37.171C7.39375 37.1217 10.7903 37.2368 13.8633 37.171C16.9363 37.1053 20.1084 37.3026 23.1055 37.171C26.1026 37.0395 29.8424 37.4441 32.6777 37.171C35.5131 36.898 39.9196 38.4967 40.2695 35.5263C28.2778 35.5263 16.2828 35.5263 4.29102 35.5263C4.19529 35.7138 4.19529 36.9835 4.29102 37.171Z" fill="#F3F3F3" stroke="#F3F3F3"/>
<path d="M78.5586 44.0789C78.5454 44.0789 78.5586 43.75 78.5586 43.75C78.519 43.4243 78.5883 43.0888 78.5586 42.7631C81.8594 42.7631 85.1602 42.7631 88.4609 42.7631C88.319 42.5756 87.9988 42.1743 87.8008 42.1052C84.939 42.1052 82.0805 42.1052 79.2188 42.1052C78.7137 40.7138 79.9944 40.1414 80.5391 39.1447C79.4102 39.7467 78.2417 41.1809 79.2188 42.4342C78.1988 42.3355 77.9909 43.5263 78.5586 44.0789Z" fill="#DED0AE" fill-opacity="0.63"/>
<path d="M87.8008 42.1052C87.7612 41.9802 88.3289 40.5493 87.7183 40.2138C87.1109 39.875 86.6125 39.5329 86.4805 39.1447C86.7148 40.1513 88.56 40.7039 87.8008 42.1052Z" fill="#B4A484" fill-opacity="0.81"/>
<path d="M78.5586 43.75C81.9419 43.4441 85.4011 43.9803 88.791 43.75C88.966 43.3224 88.6458 43.0033 88.4609 42.7632C85.1602 42.7632 81.8594 42.7632 78.5586 42.7632C78.5883 43.0888 78.519 43.4244 78.5586 43.75Z" fill="#A88E5D" fill-opacity="0.99"/>
<path d="M78.5586 44.0789C79.8327 44.1941 82.7011 44.2072 83.8398 44.0789C84.9786 43.9506 88.4081 44.6875 88.791 43.75C85.4011 43.9803 81.9419 43.4441 78.5586 43.75C78.5586 43.75 78.5454 44.0789 78.5586 44.0789Z" fill="#B1A37D" fill-opacity="0.8"/>
</svg>
